<?xml version="1.0" encoding="utf-8"?>
<!-- Generator: Adobe Illustrator 23.0.1, SVG Export Plug-In . SVG Version: 6.00 Build 0)  -->
<svg version="1.1" xmlns="http://www.w3.org/2000/svg" xmlns:xlink="http://www.w3.org/1999/xlink" x="0px" y="0px"
	 viewBox="0 0 474.7 99.2" style="enable-background:new 0 0 474.7 99.2;" xml:space="preserve">
<style type="text/css">
	.st0{display:none;}
	.st1{display:inline;}
	.st2{display:inline;fill:#FFF200;}
	.st3{fill:none;}
	.st4{stroke:#000000;stroke-width:0.5;stroke-miterlimit:10;}
	.st5{font-family:'CurlzMT';}
	.st6{font-size:66px;}
	.st7{stroke:#000000;stroke-width:2;stroke-miterlimit:10;}
	.st8{stroke:#FFFFFF;stroke-miterlimit:10;}
</style>
<g id="Layer_1" class="st0">
	
		<image style="overflow:visible;" width="580" height="386" xlink:href="12214B8E.jpg"  transform="matrix(1.4032 0 0 1.4032 14.0249 26.8255)">
	</image>
	<path class="st1" d="M316.9,168.5v7.2c0,0-13.9,13.9-13.4,17.8c0.5,3.8-2.9,9.6,6.7,10.6c9.6,1,25.4-20.6,32.2-35.5
		c6.7-14.9,21.1-44.6,13.9-89.8c0,0,14.9,2.4,37,54.2c22.1,51.8,23,69.1,23,69.1l10.1-3.8l-6.5-13.9l8.4-1.9c0,0,3.4,14.9,6.7,15.4
		c3.4,0.5-19.2,17.8-19.2,17.8l-6.2-3.8l0.5,47h15.4v11h12l6.2-100.3l-19.2-1.4l-4.6-13l13.2-7.7c0,0-10.6,13.9,0.5,13
		c11-1,14.9-15.4,19.2-25.4c4.3-10.1,29.3-50.9,64.8-53.3c0,0-37.4,29.3-10.6,78.2c0,0,10.1,0,10.6-2.4s-6.7-6.7-6.7-6.7l11-7.2
		c0,0,5.3,5.3,4.8,10.6s-5.3,15.8-5.3,15.8s-6.2,4.3-21.1,4.3l-11,90.2l22.6,0.5l-0.5,24h-11l-18.7,76.3h30.2l-1,12l-6.2,10.1
		l-5.8-11l-5.3,17.3l-3.8-17.8l-7.7,21.6l-3.8-23.5l-6.7,15.4l-2.4-6.7l-7.2,2.4l-7.2,23l-19.2,8.6l1.4,15.4l10.6,2.4l0.5,8.2l1,4.8
		l-5.8,12.5c0,0,7.7,5.8,5.8,18.7l-8.2,8.6l-1,18.7c0,0,4.3-22.6,17.3-24.5c0,0-8.2,11.5-8.2,19.2c0,0,4.8-7.2,11.5-9.1
		c0,0-5.3,7.7-6.7,10.6c-1.4,2.9,1.4,1,1.9,6.2h15.8c0,0,6.2,6.2,26.9,8.2c89-11.8,209.8,11,331.3,34.6c0,0-828.8,1.7-829.7,0
		c-10.2-18.7,270.1-55,294.4-39.4c0,0-6.2-5.8,22.1-3.8c0,0,7.2,0.5,3.4-7.2l9.1,5.3c0,0-2.4-9.6-9.1-14.4c-6.7-4.8,6.7,1.4,11,8.6
		c0,0-4.3-9.6,1.9-14.4c0,0-1.9,14.9,7.7,18.2l3.4-19.2c0,0,15.4-0.5,14.9-12c-0.5-11.5-12.5-24.5-12.5-24.5s-10.6-5.3-7.7-15.4
		c2.9-10.1,1.9-21.1,1.9-21.1l-21.6-14.4l1.4-20.6l-6.7,17.3l-6.7-17.8l-7.2,12.5l-6.2-15.4l-4.8,6.2l-5.3-9.1l0.5-8.6l34.6,3.8
		L304,289.5l-13-0.5l-3.4-27.4l18.7-2.4v12l13.4,0.5l0.5-13l8.6,1l-4.8-40.3l-17.3-1.4l-9.6-12.5l1-25L316.9,168.5z"/>
	<path class="st2" d="M350.6,246.8c0,0-6.7-19.7,18.2-23c0,2.4,0,23,0,23H350.6z"/>
	<path class="st2" d="M372.7,223.8v24.5H389C389,248.3,401,229.6,372.7,223.8z"/>
	<polygon class="st2" points="384.2,273.2 389.5,251.2 349.8,251.2 355.4,271.3 362.2,273.2 362.6,257.9 379.4,258.8 379.4,273.2 	
		"/>
	<polygon class="st2" points="457.2,197.9 457.2,223.8 478.8,223.8 486,200.3 	"/>
	<path class="st2" d="M457.2,193.6h12l2.4-21.1C471.6,172.4,452.4,174.4,457.2,193.6z"/>
	<path class="st2" d="M475.9,172.4l-1.9,21.1l12,2.4C486,196,499.4,175.8,475.9,172.4z"/>
	<path class="st2" d="M332.4,320.8l10.1-2.4l-5-19.2C337.4,299.2,326.2,300.6,332.4,320.8z"/>
	<path class="st2" d="M346.3,317.4l-6.7-19.8c0,0,12.5-5.2,17.3,19.8H346.3z"/>
	<polygon class="st2" points="333.8,323.2 356.9,320.8 361.7,342.8 342.5,344.8 	"/>
	<polygon class="st2" points="382.1,328 435.1,328 425.5,356.8 385.7,356.8 	"/>
	<path class="st2" d="M379,323.2c0,0-1.9-14.9,7.2-21.1l16.8,21.1H379z"/>
	<path class="st2" d="M389.5,299.2l15.8,21.6V292C405.4,292,390.4,293.2,389.5,299.2z"/>
	<path class="st2" d="M408.6,292v28.8l18.3-23.1C427,297.6,421.3,290,408.6,292z"/>
	<path class="st2" d="M429.4,302l-17.8,21.1h23.5C435.1,323.2,441.4,308.3,429.4,302z"/>
	<polygon class="st2" points="456.4,317.4 478.8,323.2 471.6,344.8 449.5,342.8 	"/>
	<path class="st2" d="M467.8,314.9l3.8-15.8c0,0-16.4-1.1-15.2,15.8l11.3,2.5V314.9z"/>
	<path class="st2" d="M476.4,302l-4.8,15.4l7.2,1.9C478.8,319.3,489.5,303.3,476.4,302z"/>
</g>
<g id="Layer_4">
	<rect x="19" y="19.1" class="st3" width="505.4" height="94.9"/>
	<text transform="matrix(1 0 0 1 18.96 67.8969)" class="st4 st5 st6">Test Your Sketch</text>
	<path class="st7" d="M455.3,86.6"/>
	<path class="st7" d="M19,86.6"/>
	<path class="st8" d="M423.3,8.2c0,0,7.4-4.4,11.8-3.8c0,0-1.3,4.2,0.5,7.1c1.8,2.8,3.7,2.8,4.7,2.3c1-0.4,1.3-3.9,1.3-3.9l2,3.2
		l3.4,1.4l-2.5,2.3c0,0-1.2,2.2,0,3.2c1.1,1,4.3,3.6,8.6,1.6c0,0,2.4,6.5-1.6,12.3c0,0-4.1-7.5-9.6-6.6c0,0-1.7-5.7-8.7-1.1
		c0.3-0.7,3.4-7.4-2.4-8.1C430.8,18,433.1,12.5,423.3,8.2z"/>
</g>
<g id="Layer_2" class="st0">
	<path class="st1" d="M638.7,476.9c-3.3-20.8-20.3-26.6-28.4-26.3c0,0-2.9-4.6-7-4.6c0,0,4.3-9.3,11.9-6.7c0,0,4.1-5.4-2.7-8.7
		c-6.7-3.3-18.7,6.8-18.7,15.6c0,0-2.6-2.1-6.4,0.4c0,0-3.7-4.3-13.8-0.6c-1.4-0.2-24.7,0.4-28.5,35.6c-2,26.2,23.5,36.4,25.6,35.5
		c0,0,1.8,4,10.3,3.7c0,0,8.7,3.4,12.9,1.2c0,0,6.2,2.3,10.2,0.3c4-2,13.1-1.4,19.8-7.8S642,497.7,638.7,476.9z M614.3,468.6
		l7.2,19.2l-20.3-3.5L614.3,468.6z M573.4,461.6l7.4,19.3l-20.3-3.5L573.4,461.6z M611.8,509.3l-2.2-2.6l-9.5,5.9l-5.9-5.2l-9.7,4.2
		l-7.6-6.9l-5.4,1.5l-5.8-9l-3.3,2.1c0,0-3.3-5.2-3.7-16.7l4.2,11.2l4.1-1.5l5.3,7.7l7.4-1.9l6.2,6.7l8.5-3.9l5.7,4.9l11.1-5.4
		l2.3,2.3l8.2-8.1C621.6,494.7,617.7,506.2,611.8,509.3z"/>
	<path class="st1" d="M247.2,472.9c-8-13.9-21.8-13.4-27.4-10.9c0,0-3.3-2.5-6.3-1.4c0,0,0.5-7.8,6.6-8.1c0,0,1.4-5-4.3-5.5
		c-5.7-0.5-11.4,10-9.1,16.2c0,0-2.4-0.8-4.5,2c0,0-3.8-2-10,3.3c-1.1,0.2-17.5,7.1-10.5,33.1c5.7,19.2,26.7,19.5,28,18.3
		c0,0,2.3,2.3,8.4-0.2c0,0,7.1,0.1,9.6-2.7c0,0,5-0.1,7.3-2.6c2.3-2.5,9-4.6,12-11C250,497.2,255.2,486.8,247.2,472.9z M227.5,473.7
		l10.4,11.7l-15.4,3.1L227.5,473.7z M196.5,480l10.6,11.7l-15.4,3.1L196.5,480z M236.9,503.4l-2.3-1.2l-5.2,6.8l-5.6-2l-5.8,5.6
		l-7.3-2.8l-3.4,2.6l-6.6-4.8l-1.8,2.4c0,0-3.7-2.8-7.2-10.9l6,6.8l2.5-2.2l5.9,4.1l4.7-3.4l6.2,3l5-5.1l5.4,1.9l6.5-6.9l2.3,1
		l3.6-8C239.8,490.3,240.2,499.5,236.9,503.4z"/>
</g>
<g id="Layer_3" class="st0">
	<path class="st1" d="M257.3,157.6c0,0-2.2-19.2,2.6-27.6c0,0,7,6.5,13.9,5.3c7-1.2,8.4-5,8.4-7.4c0-2.4-6.2-6.2-6.2-6.2l7.7-1.2
		l5.5-5.8l2.2,7.2c0,0,3.1,4.3,6,2.9c2.9-1.4,10.6-5.5,10.3-16.1c0,0,14.4,1,22.1,14.4c0,0-17.8,1.7-20.6,13.7
		c0,0-12.2-1.7-9.4,16.8c-1.2-1.2-11.3-13.7-17.5-2.4C282.2,151.1,273.6,141.5,257.3,157.6z"/>
	<path class="st1" d="M398.6,127.7c0,0,4.9-11.2,10.2-14.2c0,0,1.7,5.7,5.9,7.3s6.2-0.1,6.9-1.4c0.8-1.3-1.4-5.4-1.4-5.4l4.6,1.8
		l4.8-1.4l-1.1,4.6c0,0,0.3,3.3,2.4,3.5c2,0.1,7.5,0.4,10.7-5.5c0,0,7.5,5.1,7.5,14.9c0,0-10.2-4.7-15.6,0.9c0,0-6.1-4.8-10.5,6.2
		c-0.3-1-1.8-11-8.8-6.9C414.3,132.1,412.6,124.2,398.6,127.7z"/>
	<path class="st1" d="M517.3,314.2c0,0,14.8-12.5,24.4-13.1c0,0-1.5,9.4,3.3,14.5s8.9,4.2,10.9,2.9c2-1.3,1.7-8.7,1.7-8.7l5.3,5.7
		l7.9,1.4l-4.8,5.8c0,0-1.9,5,0.9,6.6c2.8,1.6,10.5,5.7,19.1-0.3c0,0,7.2,12.5,0.3,26.4c0,0-11.3-13.8-22.8-9.6
		c0,0-5.4-11.1-19.2,1.5c0.3-1.7,5.1-17-7.7-15.9C536.5,331.4,539.7,318.9,517.3,314.2z"/>
	<path class="st1" d="M558.2,156.3c0,0-2.2-19.2,2.6-27.6c0,0,7,6.5,13.9,5.3c7-1.2,8.4-5,8.4-7.4s-6.2-6.2-6.2-6.2l7.7-1.2l5.5-5.8
		l2.2,7.2c0,0,3.1,4.3,6,2.9s10.6-5.5,10.3-16.1c0,0,14.4,1,22.1,14.4c0,0-17.8,1.7-20.6,13.7c0,0-12.2-1.7-9.4,16.8
		c-1.2-1.2-11.3-13.7-17.5-2.4C583.2,149.8,574.5,140.2,558.2,156.3z"/>
	<path class="st1" d="M252.5,350.4c0,0-3.4-11.3-1.2-16.8c0,0,5.1,3.1,9.5,1.6c4.3-1.5,4.9-4,4.6-5.4c-0.3-1.4-4.7-3-4.7-3l4.8-1.6
		l2.9-4.1l2.1,4.1c0,0,2.5,2.2,4.2,1.1c1.7-1.2,6.2-4.5,4.9-10.8c0,0,9.3-1,15.7,6.2c0,0-11.2,3-11.8,10.5c0,0-8,0.4-4.3,11.1
		c-0.9-0.6-8.7-6.9-11.5,0.5C267.8,343.7,261.3,338.9,252.5,350.4z"/>
</g>
</svg>
